<svg width="177" height="62" viewBox="0 0 177 62" fill="none" xmlns="http://www.w3.org/2000/svg">
<path d="M17.4933 0.0888863H0.355556V4.71111H6.25778V52H11.5911V4.71111H17.4933V0.0888863ZM26.5436 13.8844C24.2681 13.8844 21.7792 17.6533 21.7792 24.8356V52H16.8014V9.33333H21.7081V10.1156L20.1436 20.9244L20.8547 21.0667C22.3481 10.4 24.1258 8.62222 26.5436 8.62222C28.6769 8.62222 29.7436 10.9689 29.7436 15.6622C29.7436 17.5111 29.5303 22.2756 28.3214 28.6044H22.9169C26.9703 20.0711 28.4636 17.0133 28.4636 15.7333C28.4636 14.4533 27.8236 13.8844 26.5436 13.8844ZM37.2836 52.7111C34.5814 52.7111 33.1592 51.0756 33.1592 47.6622V42.7556C33.1592 36.9956 36.1458 34.72 41.7636 29.4578V16.3022C41.7636 14.0267 41.1947 13.4578 38.8481 13.4578C35.1503 13.4578 34.2258 15.0222 34.2258 17.5111C34.2258 20.4978 35.4347 23.1289 41.2658 29.0311H34.4392C33.0169 25.6178 32.5903 21.5644 32.5903 18.2933C32.5903 13.8133 36.0747 8.62222 40.5547 8.62222C44.6792 8.62222 46.7414 10.8267 46.7414 14.4533V43.6089C46.7414 47.4489 47.4525 47.8756 48.2347 47.8756C48.8747 47.8756 49.3725 47.4489 49.4436 45.1022L49.6569 32.6578H50.6525L50.8658 44.8178C50.9369 49.2978 50.2258 52.7111 46.8836 52.7111C43.9681 52.7111 42.6881 50.6489 43.5414 40.5511L42.8303 40.4089C41.7636 51.0044 39.9858 52.7111 37.2836 52.7111ZM39.3458 47.52C40.9103 47.52 41.7636 43.1822 41.7636 36.64V30.9511C38.6347 33.9378 38.1369 35.7156 38.1369 38.7022V45.8133C38.1369 47.0933 38.6347 47.52 39.3458 47.52ZM60.2422 38.56H59.46L57.8956 24.3378L55.5489 9.33333H50.1444L58.3222 52H59.8156L67.9933 9.33333H62.1622L60.2422 38.56ZM75.0917 28.3911H83.625V17.0133C83.625 10.8267 81.5628 8.62222 77.6517 8.62222C73.385 8.62222 70.1139 11.2533 70.1139 18.2933V44.3911C70.1139 50.5067 72.3183 52.7111 76.6561 52.7111C81.4206 52.7111 83.6961 47.5911 83.5539 40.8356L83.3406 32.3022H82.345L82.1317 40.6222C81.9894 45.1733 81.065 47.8756 78.9317 47.8756C76.9406 47.8756 75.0917 47.0933 75.0917 41.9733V28.3911ZM77.1539 13.4578C78.5761 13.4578 79.3583 14.1689 79.3583 19.36V27.3956H75.0917V17.5822C75.0917 15.0222 75.4472 13.4578 77.1539 13.4578ZM93.5917 0.0888863V52H88.6139V0.0888863H93.5917ZM117.318 24.7644V24.0533C121.086 22.1333 123.931 19.4311 123.931 13.9556V9.04889C123.931 2.57778 120.66 0.0888863 114.971 0.0888863H108.571V52H114.971C121.3 52 124.998 49.5111 124.998 43.04V34.8622C124.998 29.9556 124.215 25.9022 122.082 24.3378L117.318 24.7644ZM114.473 4.92444C117.531 4.92444 118.597 6.20444 118.597 10.8267V18.2222C118.597 20.7111 117.958 22.4178 115.255 23.6267L113.904 24.1956V4.92444H114.473ZM119.664 41.2622C119.664 45.8844 118.313 47.1644 114.473 47.1644H113.904V26.4711C114.473 26.0444 115.113 25.76 115.895 25.76C118.384 25.76 119.664 27.2533 119.664 30.4533V41.2622ZM134.467 0.0888863V52H129.489V0.0888863H134.467ZM146.324 52.7111C141.844 52.7111 139.426 50.5067 139.426 44.3911V18.2222C139.426 11.2533 142.982 8.62222 147.177 8.62222C151.729 8.62222 154.075 10.8267 154.075 16.9422V43.1111C154.075 50.08 150.52 52.7111 146.324 52.7111ZM146.324 13.4578C144.76 13.4578 144.404 15.0222 144.404 17.5111V41.9733C144.404 47.0933 145.684 47.8756 147.177 47.8756C148.742 47.8756 149.097 46.3111 149.097 43.8222V19.36C149.097 14.24 147.746 13.4578 146.324 13.4578ZM176.545 9.33333H166.305C162.109 9.33333 158.554 11.9644 158.554 18.9333V35.36C158.554 38.9867 159.478 41.2622 161.185 42.5422C159.976 44.0356 157.914 45.8133 157.914 48.2311C157.914 50.08 159.051 51.0044 160.687 51.4311V51.8578C158.767 52.7111 157.202 54.3467 157.202 56.9067C157.202 59.04 158.909 61.2444 163.176 61.2444C169.078 61.2444 175.905 55.3422 175.905 51.5733C175.905 48.6578 173.843 47.1644 169.434 47.1644H161.896C160.545 47.1644 160.118 46.8089 160.118 46.1689C160.118 45.4578 161.114 44.2489 162.323 43.1111C163.176 43.5378 164.243 43.68 165.451 43.68C169.647 43.68 173.203 41.12 173.203 34.4356V19.0756C173.203 14.5244 170.5 11.8933 166.589 11.3956V10.5422C169.931 10.6133 172.42 11.6089 176.545 17.5111V9.33333ZM168.225 35.36C168.225 37.8489 167.869 39.4133 166.305 39.4133C164.811 39.4133 163.531 38.6311 163.531 33.5111V18.2222C163.531 15.7333 163.887 14.1689 165.451 14.1689C166.874 14.1689 168.225 14.9511 168.225 20.0711V35.36ZM172.42 54.7022C172.42 56.1244 171.069 56.6933 167.798 56.6933C162.251 56.6933 161.185 55.4844 161.185 54.0622C161.185 53.28 161.54 52.5689 162.678 52H169.434C171.851 52 172.42 52.9956 172.42 54.7022Z" fill="#F7D4A4"/>
</svg>
