<svg width="50" height="50" viewBox="0 0 50 50" fill="none" xmlns="http://www.w3.org/2000/svg">
<path fill-rule="evenodd" clip-rule="evenodd" d="M25 4.16667C13.4941 4.16667 4.16667 13.4941 4.16667 25C4.16667 36.5059 13.4941 45.8333 25 45.8333C36.5059 45.8333 45.8333 36.5059 45.8333 25C45.8333 13.4941 36.5059 4.16667 25 4.16667ZM0 25C0 11.1929 11.1929 0 25 0C38.8071 0 50 11.1929 50 25C50 38.8071 38.8071 50 25 50C11.1929 50 0 38.8071 0 25Z" fill="black"/>
<path fill-rule="evenodd" clip-rule="evenodd" d="M19.9838 47.3661C19.7823 47.106 19.7823 44.7887 19.9838 40.4146C17.8256 40.4891 16.4621 40.3393 15.8931 39.9652C15.0398 39.4041 14.1854 37.6735 13.4274 36.454C12.6694 35.2344 10.9869 35.0416 10.3075 34.769C9.62812 34.4962 9.45757 33.3849 12.1796 34.2254C14.9017 35.0659 15.0344 37.3548 15.8931 37.89C16.7519 38.4252 18.8048 38.191 19.7354 37.7623C20.666 37.3335 20.5975 35.7372 20.7635 35.1048C20.9732 34.5145 20.2338 34.3835 20.2175 34.3787C19.3091 34.3787 14.5366 33.3408 13.2256 28.7193C11.9148 24.0978 13.6035 21.0771 14.5043 19.7785C15.1048 18.9128 15.0517 17.0678 14.3449 14.2433C16.9112 13.9154 18.8915 14.7231 20.2861 16.6667C20.2874 16.6778 22.1143 15.5803 25.0015 15.5803C27.8888 15.5803 28.913 16.4743 29.7036 16.6667C30.494 16.8591 31.1263 13.2646 36.0083 14.2433C34.9891 16.2467 34.1354 18.75 34.787 19.7785C35.4385 20.8071 37.9954 24.0777 36.4248 28.7193C35.3776 31.8137 33.3193 33.7002 30.2496 34.3787C29.8975 34.491 29.7216 34.6723 29.7216 34.9223C29.7216 35.2974 30.1974 35.3383 30.883 37.0954C31.34 38.2668 31.373 41.6124 30.982 47.1322C29.9915 47.3844 29.2208 47.5536 28.6701 47.6402C27.6937 47.7936 26.6335 47.8797 25.5917 47.9129C24.55 47.9461 24.1882 47.9424 22.7481 47.8083C21.788 47.719 20.8666 47.5716 19.9838 47.3661Z" fill="black"/>
</svg>
