<svg width="50" height="50" viewBox="0 0 50 50" fill="none" xmlns="http://www.w3.org/2000/svg">
<path d="M45.4294 20.9198H43.7513V20.8333H25.0013V29.1666H36.7753C35.0576 34.0177 30.4419 37.5 25.0013 37.5C18.0982 37.5 12.5013 31.9031 12.5013 25C12.5013 18.0968 18.0982 12.5 25.0013 12.5C28.1878 12.5 31.0867 13.702 33.294 15.6656L39.1867 9.77288C35.4659 6.30517 30.4888 4.16663 25.0013 4.16663C13.4961 4.16663 4.16797 13.4948 4.16797 25C4.16797 36.5052 13.4961 45.8333 25.0013 45.8333C36.5065 45.8333 45.8346 36.5052 45.8346 25C45.8346 23.6031 45.6909 22.2395 45.4294 20.9198Z" fill="#FFC107"/>
<path d="M6.57031 15.3031L13.4151 20.3229C15.2672 15.7375 19.7526 12.5 25.0016 12.5C28.188 12.5 31.087 13.702 33.2943 15.6656L39.187 9.77288C35.4661 6.30517 30.4891 4.16663 25.0016 4.16663C16.9995 4.16663 10.0599 8.68433 6.57031 15.3031Z" fill="#FF3D00"/>
<path d="M25 45.8333C30.3813 45.8333 35.2708 43.7739 38.9677 40.425L32.5198 34.9687C30.3579 36.6129 27.7161 37.5021 25 37.5C19.5813 37.5 14.9802 34.0448 13.2469 29.2229L6.45312 34.4573C9.90104 41.2042 16.9031 45.8333 25 45.8333Z" fill="#4CAF50"/>
<path d="M45.4281 20.9198H43.75V20.8334H25V29.1667H36.774C35.9523 31.4755 34.4722 33.4929 32.5167 34.9698L32.5198 34.9678L38.9677 40.424C38.5115 40.8386 45.8333 35.4167 45.8333 25C45.8333 23.6032 45.6896 22.2396 45.4281 20.9198Z" fill="#1976D2"/>
</svg>
