<svg width="20" height="20" viewBox="0 0 20 20" fill="none" xmlns="http://www.w3.org/2000/svg">
<path d="M6.00008 7.99996L6.00008 14.6666M14.0001 14.6666L14.0001 11.3333C14.0001 9.86054 12.8062 8.66663 11.3334 8.66663C9.86065 8.66663 8.66675 9.86054 8.66675 11.3333L8.66675 14.6666L8.66675 7.99996M5.33341 5.99996L6.66675 5.99996M2.00008 0.666626L18.0001 0.666629C18.7365 0.666629 19.3334 1.26358 19.3334 1.99996L19.3334 18C19.3334 18.7363 18.7365 19.3333 18.0001 19.3333L2.00008 19.3333C1.2637 19.3333 0.666745 18.7363 0.666745 18L0.666748 1.99996C0.666748 1.26358 1.2637 0.666626 2.00008 0.666626Z" stroke="#FEFEFE"/>
</svg>
