<svg width="20" height="20" viewBox="0 0 20 20" fill="none" xmlns="http://www.w3.org/2000/svg">
<path d="M14.6667 4.66663H16.0001M6.00008 0.666626L14.0001 0.666626C16.9456 0.666626 19.3334 3.05444 19.3334 5.99996L19.3334 14C19.3334 16.9455 16.9456 19.3333 14.0001 19.3333L6.00008 19.3333C3.05456 19.3333 0.666748 16.9455 0.666748 14L0.666748 5.99996C0.666748 3.05444 3.05456 0.666626 6.00008 0.666626ZM10.0001 14C7.79094 14 6.00008 12.2091 6.00008 9.99996C6.00008 7.79082 7.79094 5.99996 10.0001 5.99996C12.2092 5.99996 14.0001 7.79082 14.0001 9.99996C14.0001 12.2091 12.2092 14 10.0001 14Z" stroke="#FEFEFE"/>
</svg>
