<svg width="21" height="21" viewBox="0 0 21 21" fill="none" xmlns="http://www.w3.org/2000/svg">
<path d="M10.5 4.97771C7.45007 4.97771 4.97765 7.45013 4.97765 10.4984C4.97765 13.5483 7.45007 16.0208 10.5 16.0208C13.5499 16.0208 16.0223 13.5483 16.0223 10.4984C16.0223 7.45013 13.5499 4.97771 10.5 4.97771ZM9.31218 3.97201H11.6895C11.7994 3.97201 11.9011 3.91787 11.9651 3.82763C12.0274 3.73904 12.0422 3.62255 12.0044 3.51919L10.815 0.300288C10.7658 0.167397 10.6411 0.0804443 10.5 0.0804443C10.3589 0.0804443 10.2342 0.169038 10.185 0.300288L8.99554 3.52083C8.95781 3.62419 8.97257 3.73904 9.03492 3.82927C9.0989 3.91951 9.20226 3.97201 9.31218 3.97201ZM15.9567 6.72498C16.0191 6.78896 16.106 6.82341 16.193 6.82341C16.2127 6.82341 16.2323 6.82177 16.252 6.81849C16.3603 6.7988 16.4505 6.72826 16.4981 6.62818L17.9353 3.50935C17.9944 3.38138 17.9665 3.23208 17.868 3.13201C17.768 3.03193 17.617 3.00568 17.4891 3.0631L14.3719 4.50193C14.2718 4.54787 14.2012 4.63974 14.1816 4.74802C14.1619 4.8563 14.198 4.96623 14.2734 5.04498L15.9567 6.72498ZM20.7014 10.1851L17.4792 8.99724C17.3759 8.95951 17.261 8.97427 17.1708 9.03662C17.0805 9.09896 17.028 9.20068 17.028 9.3106L17.0297 11.6879C17.0297 11.7978 17.0838 11.9011 17.1741 11.9635C17.2315 12.0012 17.2987 12.0226 17.366 12.0226C17.4054 12.0226 17.4448 12.016 17.4825 12.0012L20.7047 10.8134C20.8359 10.7658 20.9245 10.6395 20.9245 10.4968C20.9212 10.359 20.8343 10.2343 20.7014 10.1851ZM16.4981 14.3719C16.4755 14.3227 16.4412 14.2797 16.3984 14.2466C16.3556 14.2135 16.3053 14.1912 16.252 14.1816C16.1437 14.1636 16.0322 14.198 15.9567 14.2751L14.2751 15.9568C14.198 16.0339 14.1619 16.1454 14.1816 16.2537C14.2012 16.3604 14.2718 16.4539 14.3719 16.4998L17.4907 17.937C17.535 17.9583 17.5826 17.9665 17.6318 17.9665C17.7187 17.9665 17.8041 17.9321 17.868 17.8681C17.9681 17.768 17.9944 17.6187 17.9353 17.4908L16.4981 14.3719ZM11.6878 17.0265L9.31054 17.0281C9.20062 17.0281 9.0989 17.0822 9.03656 17.1725C8.97422 17.2627 8.95945 17.3776 8.99554 17.4793L10.185 20.7015C10.2342 20.8327 10.3589 20.9213 10.5 20.9213C10.6411 20.9213 10.7658 20.8327 10.815 20.7015L12.0044 17.4793C12.0422 17.3759 12.0274 17.2611 11.9651 17.1708C11.9011 17.0806 11.7994 17.0265 11.6878 17.0265ZM5.04328 14.2751C4.96617 14.198 4.85625 14.1636 4.74797 14.1816C4.63968 14.2013 4.54781 14.2719 4.50187 14.3719L3.06468 17.4908C3.00562 17.6187 3.03351 17.7697 3.13359 17.8681C3.182 17.9166 3.24417 17.9491 3.31167 17.9612C3.37916 17.9732 3.44873 17.9642 3.51093 17.9354L6.62976 16.4965C6.67896 16.4739 6.72195 16.4397 6.75508 16.3968C6.78822 16.354 6.81051 16.3038 6.82007 16.2504C6.83976 16.1422 6.80367 16.0322 6.72656 15.9551L5.04328 14.2751ZM3.63726 12.0242C3.70453 12.0242 3.77179 12.0029 3.82922 11.9635C3.91945 11.9011 3.97359 11.7978 3.97359 11.6879L3.97195 9.3106C3.97196 9.25658 3.95892 9.20335 3.93395 9.15544C3.90898 9.10754 3.8728 9.06637 3.82851 9.03545C3.78421 9.00452 3.7331 8.98475 3.67953 8.97781C3.62595 8.97087 3.57149 8.97698 3.52078 8.9956L0.29859 10.1851C0.234073 10.2087 0.178377 10.2516 0.13903 10.3079C0.0996826 10.3643 0.0785828 10.4313 0.0785828 10.5001C0.0785828 10.5688 0.0996826 10.6358 0.13903 10.6922C0.178377 10.7485 0.234073 10.7914 0.29859 10.8151L3.52242 12.0029C3.56015 12.0176 3.59789 12.0242 3.63726 12.0242ZM4.50351 6.62818C4.52623 6.67734 4.56049 6.72029 4.60337 6.75337C4.64624 6.78645 4.69648 6.80869 4.74979 6.81819C4.80311 6.82769 4.85793 6.82418 4.9096 6.80795C4.96127 6.79172 5.00825 6.76326 5.04656 6.72498L6.72656 5.04333C6.80367 4.96458 6.83812 4.85466 6.81843 4.74638C6.79875 4.63974 6.7282 4.54787 6.62812 4.50193L3.50765 3.06474C3.37968 3.00568 3.23039 3.03357 3.13031 3.13365C3.03023 3.23373 3.00398 3.38302 3.06304 3.51099L4.50351 6.62818Z" fill="#FCC21B"/>
</svg>
