<svg width="50" height="50" viewBox="0 0 50 50" fill="none" xmlns="http://www.w3.org/2000/svg">
<path d="M25 0C11.1928 0 0 11.1928 0 25C0 38.8072 11.1928 50 25 50C38.8072 50 50 38.8072 50 25C50 11.1928 38.8072 0 25 0Z" fill="#40B3E0"/>
<path d="M37.1664 14.3809L32.701 36.8944C32.701 36.8944 32.0766 38.4557 30.3592 37.7063L20.0549 29.8063L16.308 27.9953L10.0006 25.8719C10.0006 25.8719 9.03262 25.5285 8.93887 24.7791C8.84512 24.0297 10.0318 23.6239 10.0318 23.6239L35.1053 13.7879C35.1053 13.7879 37.1662 12.8824 37.1662 14.3813" fill="white"/>
<path d="M19.2598 36.6413C19.2598 36.6413 18.959 36.6131 18.584 35.4264C18.2096 34.2399 16.3047 27.995 16.3047 27.995L31.4488 18.3778C31.4488 18.3778 32.3232 17.8469 32.292 18.3778C32.292 18.3778 32.448 18.4715 31.9795 18.9086C31.5113 19.3459 20.083 29.6188 20.083 29.6188" fill="#D2E5F1"/>
</svg>
