<svg width="50" height="50" viewBox="0 0 50 50" fill="none" xmlns="http://www.w3.org/2000/svg">
<path fill-rule="evenodd" clip-rule="evenodd" d="M25 4.16667C13.4941 4.16667 4.16667 13.4941 4.16667 25C4.16667 36.5059 13.4941 45.8333 25 45.8333C36.5059 45.8333 45.8333 36.5059 45.8333 25C45.8333 13.4941 36.5059 4.16667 25 4.16667ZM0 25C0 11.1929 11.1929 0 25 0C38.8071 0 50 11.1929 50 25C50 38.8071 38.8071 50 25 50C11.1929 50 0 38.8071 0 25Z" fill="black"/>
<path fill-rule="evenodd" clip-rule="evenodd" d="M19.9828 47.3661C19.7813 47.106 19.7813 44.7887 19.9828 40.4146C17.8247 40.4891 16.4611 40.3393 15.8922 39.9652C15.0388 39.4041 14.1845 37.6735 13.4264 36.454C12.6684 35.2344 10.9859 35.0416 10.3065 34.769C9.62714 34.4962 9.45659 33.3849 12.1786 34.2254C14.9007 35.0659 15.0334 37.3548 15.8922 37.89C16.7509 38.4252 18.8038 38.191 19.7345 37.7623C20.665 37.3335 20.5965 35.7372 20.7625 35.1048C20.9723 34.5145 20.2328 34.3835 20.2165 34.3787C19.3081 34.3787 14.5356 33.3408 13.2247 28.7193C11.9138 24.0978 13.6025 21.0771 14.5033 19.7785C15.1038 18.9128 15.0507 17.0678 14.3439 14.2433C16.9102 13.9154 18.8905 14.7231 20.2851 16.6667C20.2864 16.6778 22.1133 15.5803 25.0005 15.5803C27.8878 15.5803 28.9121 16.4743 29.7026 16.6667C30.493 16.8591 31.1253 13.2646 36.0074 14.2433C34.9881 16.2467 34.1345 18.75 34.786 19.7785C35.4375 20.8071 37.9945 24.0777 36.4238 28.7193C35.3766 31.8137 33.3183 33.7002 30.2486 34.3787C29.8965 34.491 29.7206 34.6723 29.7206 34.9223C29.7206 35.2974 30.1964 35.3383 30.8821 37.0954C31.339 38.2668 31.3721 41.6124 30.981 47.1322C29.9905 47.3844 29.2199 47.5536 28.6691 47.6402C27.6927 47.7936 26.6325 47.8797 25.5907 47.9129C24.549 47.9461 24.1873 47.9424 22.7472 47.8083C21.7871 47.719 20.8656 47.5716 19.9828 47.3661Z" fill="black"/>
</svg>
