<svg width="50" height="50" viewBox="0 0 50 50" fill="none" xmlns="http://www.w3.org/2000/svg">
<path d="M45.428 20.9198H43.7498V20.8333H24.9998V29.1666H36.7738C35.0561 34.0177 30.4405 37.5 24.9998 37.5C18.0967 37.5 12.4998 31.9031 12.4998 25C12.4998 18.0968 18.0967 12.5 24.9998 12.5C28.1863 12.5 31.0853 13.702 33.2925 15.6656L39.1853 9.77288C35.4644 6.30517 30.4873 4.16663 24.9998 4.16663C13.4946 4.16663 4.1665 13.4948 4.1665 25C4.1665 36.5052 13.4946 45.8333 24.9998 45.8333C36.505 45.8333 45.8332 36.5052 45.8332 25C45.8332 23.6031 45.6894 22.2395 45.428 20.9198Z" fill="#FFC107"/>
<path d="M6.56885 15.3031L13.4136 20.3229C15.2657 15.7375 19.7511 12.5 25.0001 12.5C28.1866 12.5 31.0855 13.702 33.2928 15.6656L39.1855 9.77288C35.4647 6.30517 30.4876 4.16663 25.0001 4.16663C16.998 4.16663 10.0584 8.68433 6.56885 15.3031Z" fill="#FF3D00"/>
<path d="M25 45.8333C30.3813 45.8333 35.2708 43.7739 38.9677 40.425L32.5198 34.9687C30.3579 36.6129 27.7161 37.5021 25 37.5C19.5813 37.5 14.9802 34.0448 13.2469 29.2229L6.45312 34.4573C9.90104 41.2042 16.9031 45.8333 25 45.8333Z" fill="#4CAF50"/>
<path d="M45.4281 20.9198H43.75V20.8334H25V29.1667H36.774C35.9523 31.4755 34.4722 33.4929 32.5167 34.9698L32.5198 34.9678L38.9677 40.424C38.5115 40.8386 45.8333 35.4167 45.8333 25C45.8333 23.6032 45.6896 22.2396 45.4281 20.9198Z" fill="#1976D2"/>
</svg>
