<svg width="20" height="20" viewBox="0 0 20 20" fill="none" xmlns="http://www.w3.org/2000/svg">
<path d="M2.00008 1.16663L18.0001 1.16663L18.0001 0.166629L2.00008 0.166626L2.00008 1.16663ZM18.8334 1.99996L18.8334 18L19.8334 18L19.8334 1.99996L18.8334 1.99996ZM18.0001 18.8333L2.00008 18.8333L2.00008 19.8333L18.0001 19.8333L18.0001 18.8333ZM1.16675 18L1.16675 1.99996L0.166748 1.99996L0.166745 18L1.16675 18ZM2.00008 18.8333C1.53984 18.8333 1.16674 18.4602 1.16675 18L0.166745 18C0.166745 19.0125 0.987557 19.8333 2.00008 19.8333L2.00008 18.8333ZM18.8334 18C18.8334 18.4602 18.4603 18.8333 18.0001 18.8333L18.0001 19.8333C19.0126 19.8333 19.8334 19.0125 19.8334 18L18.8334 18ZM18.0001 1.16663C18.4603 1.16663 18.8334 1.53973 18.8334 1.99996L19.8334 1.99996C19.8334 0.987441 19.0126 0.166629 18.0001 0.166629L18.0001 1.16663ZM2.00008 0.166626C0.987559 0.166626 0.166748 0.987438 0.166748 1.99996L1.16675 1.99996C1.16675 1.53972 1.53984 1.16663 2.00008 1.16663L2.00008 0.166626ZM5.50008 7.99996L5.50008 14.6666L6.50008 14.6666L6.50008 7.99996L5.50008 7.99996ZM9.16675 14.6666L9.16675 11.3333L8.16675 11.3333L8.16675 14.6666L9.16675 14.6666ZM13.5001 11.3333L13.5001 14.6666L14.5001 14.6666L14.5001 11.3333L13.5001 11.3333ZM14.5001 11.3333C14.5001 9.58439 13.0823 8.16663 11.3334 8.16663L11.3334 9.16663C12.53 9.16663 13.5001 10.1367 13.5001 11.3333L14.5001 11.3333ZM9.16675 11.3333C9.16675 10.1367 10.1368 9.16663 11.3334 9.16663L11.3334 8.16663C9.58451 8.16663 8.16675 9.58439 8.16675 11.3333L9.16675 11.3333ZM8.16675 7.99996L8.16675 14.6666L9.16675 14.6666L9.16675 7.99996L8.16675 7.99996ZM5.33341 6.49996L6.66675 6.49996L6.66675 5.49996L5.33341 5.49996L5.33341 6.49996Z" fill="#FEFEFE"/>
</svg>
