<svg width="20" height="20" viewBox="0 0 20 20" fill="none" xmlns="http://www.w3.org/2000/svg">
<path d="M6.00008 1.16663L14.0001 1.16663V0.166626L6.00008 0.166626V1.16663ZM18.8334 5.99996L18.8334 14H19.8334L19.8334 5.99996H18.8334ZM14.0001 18.8333L6.00008 18.8333V19.8333L14.0001 19.8333V18.8333ZM1.16675 14L1.16675 5.99996H0.166748L0.166748 14H1.16675ZM6.00008 18.8333C3.33071 18.8333 1.16675 16.6693 1.16675 14H0.166748C0.166748 17.2216 2.77842 19.8333 6.00008 19.8333V18.8333ZM18.8334 14C18.8334 16.6693 16.6695 18.8333 14.0001 18.8333V19.8333C17.2217 19.8333 19.8334 17.2216 19.8334 14H18.8334ZM14.0001 1.16663C16.6695 1.16663 18.8334 3.33058 18.8334 5.99996H19.8334C19.8334 2.7783 17.2217 0.166626 14.0001 0.166626V1.16663ZM6.00008 0.166626C2.77842 0.166626 0.166748 2.7783 0.166748 5.99996H1.16675C1.16675 3.33058 3.33071 1.16663 6.00008 1.16663V0.166626ZM10.0001 13.5C8.06709 13.5 6.50008 11.933 6.50008 9.99996L5.50008 9.99996C5.50008 12.4852 7.5148 14.5 10.0001 14.5V13.5ZM13.5001 9.99996C13.5001 11.933 11.9331 13.5 10.0001 13.5V14.5C12.4854 14.5 14.5001 12.4852 14.5001 9.99996H13.5001ZM10.0001 6.49996C11.9331 6.49996 13.5001 8.06696 13.5001 9.99996H14.5001C14.5001 7.51468 12.4854 5.49996 10.0001 5.49996L10.0001 6.49996ZM10.0001 5.49996C7.5148 5.49996 5.50008 7.51468 5.50008 9.99996L6.50008 9.99996C6.50008 8.06696 8.06709 6.49996 10.0001 6.49996L10.0001 5.49996ZM14.6667 5.16663H16.0001V4.16663L14.6667 4.16663V5.16663Z" fill="#FEFEFE"/>
</svg>
