<svg width="50" height="50" viewBox="0 0 50 50" fill="none" xmlns="http://www.w3.org/2000/svg">
<path d="M25 0C11.1928 0 0 11.1928 0 25C0 38.8072 11.1928 50 25 50C38.8072 50 50 38.8072 50 25C50 11.1928 38.8072 0 25 0Z" fill="#40B3E0"/>
<path d="M37.1647 14.3809L32.6993 36.8944C32.6993 36.8944 32.0749 38.4557 30.3575 37.7063L20.0532 29.8063L16.3063 27.9953L9.99888 25.8719C9.99888 25.8719 9.03091 25.5285 8.93716 24.7791C8.84341 24.0297 10.0301 23.6239 10.0301 23.6239L35.1036 13.7879C35.1036 13.7879 37.1645 12.8824 37.1645 14.3813" fill="white"/>
<path d="M19.2612 36.6413C19.2612 36.6413 18.9604 36.6131 18.5854 35.4264C18.211 34.2399 16.3062 27.995 16.3062 27.995L31.4503 18.3778C31.4503 18.3778 32.3247 17.8469 32.2935 18.3778C32.2935 18.3778 32.4495 18.4715 31.981 18.9086C31.5128 19.3459 20.0845 29.6188 20.0845 29.6188" fill="#D2E5F1"/>
</svg>
